# xmcd CD database file
#
# Track frame offsets:
#	183
#	13245
#	23228
#	31413
#	40983
#	49328
#	62630
#	72845
#	88823
#	96175
#	109645
#	121753
#	130935
#	135313
#	145658
#	154193
#	162995
#	177810
#	186590
#	198688
#	208683
#	222865
#	236718
#	244868
#
# Disc length: 3378 seconds
#
# Revision: 2
# Processed by: cddbd v1.5.1PL0 Copyright (c) Steve Scherf et al.
# Submitted via: CDex 1.51
#
DISCID=600d3018
DTITLE=Big Joe Williams - Watergate Blues
DYEAR=1900
DGENRE=Blues
TTITLE0=Down In The Bottom
TTITLE1=Boogie Woogie All Day Long
TTITLE2=I Wanna Die Easy When I Die
TTITLE3=Bull Cow Blues
TTITLE4=Watergate Blues
TTITLE5=I'm Gonna Do It This Time, Ain't Gonna Do It No Mo'
TTITLE6=Stella Blues
TTITLE7=I Thought It Was Somethin' Big To Make A Record In Them Days
TTITLE8=Jinx Blues
TTITLE9=Sugar Hill Story
TTITLE10=Skin and Bone Blues
TTITLE11=Jump, Baby, Jump!
TTITLE12=Came Out The Wilderness
TTITLE13=Lord Have Mercy
TTITLE14=Motherless Children
TTITLE15=Levee Camp Holler
TTITLE16=You Gonna Need King Jesus On Your Bond
TTITLE17=Sinner Man
TTITLE18='Bama Leaves Fallin'
TTITLE19=This Little Light O'Mine
TTITLE20=When The Saints Go Marchin' In
TTITLE21=In The Evening When The Sun Goes Down
TTITLE22=Kansas City Blues
TTITLE23=What You Gon' Do, Sinner ?
EXTD=Recorded Live in Crawford, Mississippi\nLicensed By ORNAMENT Musikproduktion GmbH\n(P)1992 CMA MUSIC PRODUCTION GMBH/ORNAMENT MUSIKPRODUKTION GMBH
EXTT0=
EXTT1=
EXTT2=
EXTT3=
EXTT4=
EXTT5=
EXTT6=
EXTT7=
EXTT8=
EXTT9=
EXTT10=
EXTT11=
EXTT12=
EXTT13=
EXTT14=
EXTT15=
EXTT16=
EXTT17=
EXTT18=
EXTT19=
EXTT20=
EXTT21=
EXTT22=
EXTT23=
PLAYORDER=
